<mxfile modified="2020-03-12T05:47:58.838Z" host="www.draw.io" agent="Mozilla/5.0 (Windows NT 10.0; Win64; x64) AppleWebKit/537.36 (KHTML, like Gecko) Chrome/80.0.3987.132 Safari/537.36" etag="i-cTbPF0aB8kygHZhAEK" version="12.8.4" type="github">
  <diagram id="Ht1M8jgEwFfnCIfOTk4-" name="Page-1">
    <mxGraphModel dx="1209" dy="625" grid="1" gridSize="10" guides="1" tooltips="1" connect="1" arrows="1" fold="1" page="1" pageScale="1" pageWidth="1169" pageHeight="827" math="0" shadow="0">
      <root>
        <mxCell id="0" />
        <mxCell id="1" parent="0" />
        <mxCell id="SnY5fto8O481bCajrwKU-5" value="&lt;b&gt;Auto Scaling group&lt;/b&gt;" style="points=[[0,0],[0.25,0],[0.5,0],[0.75,0],[1,0],[1,0.25],[1,0.5],[1,0.75],[1,1],[0.75,1],[0.5,1],[0.25,1],[0,1],[0,0.75],[0,0.5],[0,0.25]];outlineConnect=0;gradientColor=none;html=1;whiteSpace=wrap;fontSize=12;fontStyle=0;shape=mxgraph.aws4.groupCenter;grIcon=mxgraph.aws4.group_auto_scaling_group;grStroke=1;strokeColor=#D86613;fillColor=none;verticalAlign=top;align=center;fontColor=#D86613;dashed=1;spacingTop=25;strokeWidth=3;" parent="1" vertex="1">
          <mxGeometry x="900" y="20" width="250" height="780" as="geometry" />
        </mxCell>
        <mxCell id="4u2JqEsfzCHy2befoRDk-19" style="rounded=0;orthogonalLoop=1;jettySize=auto;html=1;startArrow=open;startFill=0;endArrow=open;endFill=0;strokeWidth=2;strokeColor=#808080;" parent="1" source="02hSYp207ZbuOktpREeJ-4" target="02hSYp207ZbuOktpREeJ-3" edge="1">
          <mxGeometry relative="1" as="geometry">
            <mxPoint x="892" y="242.46938775510216" as="sourcePoint" />
            <mxPoint x="935.5" y="241.95825602968466" as="targetPoint" />
          </mxGeometry>
        </mxCell>
        <mxCell id="4u2JqEsfzCHy2befoRDk-20" style="rounded=0;orthogonalLoop=1;jettySize=auto;html=1;startArrow=open;startFill=0;endArrow=open;endFill=0;strokeWidth=2;strokeColor=#808080;" parent="1" source="02hSYp207ZbuOktpREeJ-4" target="02hSYp207ZbuOktpREeJ-5" edge="1">
          <mxGeometry relative="1" as="geometry">
            <mxPoint x="794" y="252.46938775510216" as="sourcePoint" />
            <mxPoint x="837.5" y="251.95825602968466" as="targetPoint" />
          </mxGeometry>
        </mxCell>
        <mxCell id="UEzPUAAOIrF-is8g5C7q-131" style="edgeStyle=orthogonalEdgeStyle;rounded=0;orthogonalLoop=1;jettySize=auto;html=1;startArrow=open;startFill=0;endArrow=open;endFill=0;strokeWidth=2;strokeColor=#808080;" parent="1" edge="1" source="02hSYp207ZbuOktpREeJ-1">
          <mxGeometry relative="1" as="geometry">
            <Array as="points">
              <mxPoint x="640" y="360" />
              <mxPoint x="640" y="236" />
            </Array>
            <mxPoint x="570" y="366" as="sourcePoint" />
            <mxPoint x="697.0000000000002" y="236" as="targetPoint" />
          </mxGeometry>
        </mxCell>
        <mxCell id="UEzPUAAOIrF-is8g5C7q-132" value="Log" style="edgeStyle=orthogonalEdgeStyle;rounded=0;orthogonalLoop=1;jettySize=auto;html=1;startArrow=open;startFill=0;endArrow=open;endFill=0;strokeWidth=2;strokeColor=#808080;fontStyle=1" parent="1" source="02hSYp207ZbuOktpREeJ-1" target="UEzPUAAOIrF-is8g5C7q-116" edge="1">
          <mxGeometry x="0.874" y="-10" relative="1" as="geometry">
            <Array as="points">
              <mxPoint x="600" y="350" />
              <mxPoint x="600" y="60" />
            </Array>
            <mxPoint x="555" y="372" as="sourcePoint" />
            <mxPoint x="690" y="98" as="targetPoint" />
            <mxPoint as="offset" />
          </mxGeometry>
        </mxCell>
        <mxCell id="UEzPUAAOIrF-is8g5C7q-133" style="rounded=0;orthogonalLoop=1;jettySize=auto;html=1;startArrow=open;startFill=0;endArrow=open;endFill=0;strokeWidth=2;strokeColor=#808080;" parent="1" edge="1">
          <mxGeometry relative="1" as="geometry">
            <mxPoint x="558.5" y="370" as="sourcePoint" />
            <mxPoint x="697" y="370" as="targetPoint" />
          </mxGeometry>
        </mxCell>
        <mxCell id="UEzPUAAOIrF-is8g5C7q-134" style="edgeStyle=orthogonalEdgeStyle;rounded=0;orthogonalLoop=1;jettySize=auto;html=1;startArrow=open;startFill=0;endArrow=open;endFill=0;strokeWidth=2;strokeColor=#808080;" parent="1" source="02hSYp207ZbuOktpREeJ-1" target="UEzPUAAOIrF-is8g5C7q-121" edge="1">
          <mxGeometry relative="1" as="geometry">
            <Array as="points">
              <mxPoint x="640" y="392" />
              <mxPoint x="640" y="531" />
            </Array>
            <mxPoint x="555" y="392" as="sourcePoint" />
          </mxGeometry>
        </mxCell>
        <mxCell id="UEzPUAAOIrF-is8g5C7q-135" style="edgeStyle=orthogonalEdgeStyle;rounded=0;orthogonalLoop=1;jettySize=auto;html=1;startArrow=open;startFill=0;endArrow=open;endFill=0;strokeWidth=2;strokeColor=#808080;" parent="1" source="02hSYp207ZbuOktpREeJ-1" edge="1" target="02hSYp207ZbuOktpREeJ-18">
          <mxGeometry relative="1" as="geometry">
            <Array as="points">
              <mxPoint x="618" y="402" />
              <mxPoint x="618" y="654" />
            </Array>
            <mxPoint x="555" y="402" as="sourcePoint" />
            <mxPoint x="690" y="654" as="targetPoint" />
          </mxGeometry>
        </mxCell>
        <mxCell id="UEzPUAAOIrF-is8g5C7q-136" style="edgeStyle=orthogonalEdgeStyle;rounded=0;orthogonalLoop=1;jettySize=auto;html=1;startArrow=open;startFill=0;endArrow=open;endFill=0;strokeWidth=2;strokeColor=#808080;" parent="1" source="02hSYp207ZbuOktpREeJ-1" target="02hSYp207ZbuOktpREeJ-11" edge="1">
          <mxGeometry relative="1" as="geometry">
            <Array as="points">
              <mxPoint x="600" y="412" />
              <mxPoint x="600" y="759" />
            </Array>
            <mxPoint x="555" y="412" as="sourcePoint" />
            <mxPoint x="697.0000000000002" y="730" as="targetPoint" />
          </mxGeometry>
        </mxCell>
        <mxCell id="UEzPUAAOIrF-is8g5C7q-116" value="&lt;b&gt;Amazon S3&lt;/b&gt;" style="outlineConnect=0;fontColor=#232F3E;gradientColor=#60A337;gradientDirection=north;fillColor=#277116;strokeColor=#ffffff;dashed=0;verticalLabelPosition=bottom;verticalAlign=top;align=center;html=1;fontSize=12;fontStyle=0;aspect=fixed;shape=mxgraph.aws4.resourceIcon;resIcon=mxgraph.aws4.s3;labelBackgroundColor=#ffffff;" parent="1" vertex="1">
          <mxGeometry x="697.0000000000002" y="20" width="78" height="78" as="geometry" />
        </mxCell>
        <mxCell id="UEzPUAAOIrF-is8g5C7q-121" value="Amazon&lt;br&gt;CloudWatch&lt;br&gt;" style="outlineConnect=0;fontColor=#232F3E;gradientColor=#F34482;gradientDirection=north;fillColor=#BC1356;strokeColor=#ffffff;dashed=0;verticalLabelPosition=bottom;verticalAlign=top;align=center;html=1;fontSize=12;fontStyle=1;aspect=fixed;shape=mxgraph.aws4.resourceIcon;resIcon=mxgraph.aws4.cloudwatch;labelBackgroundColor=#ffffff;" parent="1" vertex="1">
          <mxGeometry x="697.0000000000002" y="491.5" width="78" height="78" as="geometry" />
        </mxCell>
        <mxCell id="02hSYp207ZbuOktpREeJ-1" value="EC2" style="outlineConnect=0;fontColor=#232F3E;gradientColor=#F78E04;gradientDirection=north;fillColor=#D05C17;strokeColor=#ffffff;dashed=0;verticalLabelPosition=bottom;verticalAlign=top;align=center;html=1;fontSize=12;fontStyle=1;aspect=fixed;shape=mxgraph.aws4.resourceIcon;resIcon=mxgraph.aws4.ec2;" parent="1" vertex="1">
          <mxGeometry x="480.5" y="340" width="78" height="78" as="geometry" />
        </mxCell>
        <mxCell id="02hSYp207ZbuOktpREeJ-2" value="&lt;b&gt;RDS&lt;/b&gt;" style="outlineConnect=0;fontColor=#232F3E;gradientColor=#4D72F3;gradientDirection=north;fillColor=#3334B9;strokeColor=#ffffff;dashed=0;verticalLabelPosition=bottom;verticalAlign=top;align=center;html=1;fontSize=12;fontStyle=0;aspect=fixed;shape=mxgraph.aws4.resourceIcon;resIcon=mxgraph.aws4.rds;" parent="1" vertex="1">
          <mxGeometry x="697" y="200.5" width="78" height="78" as="geometry" />
        </mxCell>
        <mxCell id="02hSYp207ZbuOktpREeJ-3" value="Slave&lt;br&gt;" style="outlineConnect=0;fontColor=#232F3E;gradientColor=#4D72F3;gradientDirection=north;fillColor=#3334B9;strokeColor=#ffffff;dashed=0;verticalLabelPosition=bottom;verticalAlign=top;align=center;html=1;fontSize=12;fontStyle=1;aspect=fixed;shape=mxgraph.aws4.resourceIcon;resIcon=mxgraph.aws4.database;" parent="1" vertex="1">
          <mxGeometry x="936.5" y="310" width="78" height="78" as="geometry" />
        </mxCell>
        <mxCell id="02hSYp207ZbuOktpREeJ-4" value="Oracle Database&lt;br&gt;Master" style="outlineConnect=0;fontColor=#232F3E;gradientColor=#4D72F3;gradientDirection=north;fillColor=#3334B9;strokeColor=#ffffff;dashed=0;verticalLabelPosition=bottom;verticalAlign=top;align=center;html=1;fontSize=12;fontStyle=1;aspect=fixed;shape=mxgraph.aws4.resourceIcon;resIcon=mxgraph.aws4.database;" parent="1" vertex="1">
          <mxGeometry x="936.5" y="193" width="78" height="78" as="geometry" />
        </mxCell>
        <mxCell id="02hSYp207ZbuOktpREeJ-5" value="Failover&lt;br&gt;" style="outlineConnect=0;fontColor=#232F3E;gradientColor=#4D72F3;gradientDirection=north;fillColor=#3334B9;strokeColor=#ffffff;dashed=0;verticalLabelPosition=bottom;verticalAlign=top;align=center;html=1;fontSize=12;fontStyle=1;aspect=fixed;shape=mxgraph.aws4.resourceIcon;resIcon=mxgraph.aws4.database;" parent="1" vertex="1">
          <mxGeometry x="936.5" y="76" width="78" height="78" as="geometry" />
        </mxCell>
        <mxCell id="02hSYp207ZbuOktpREeJ-8" value="LoadBalance" style="outlineConnect=0;fontColor=#232F3E;gradientColor=#F78E04;gradientDirection=north;fillColor=#D05C17;strokeColor=#ffffff;dashed=0;verticalLabelPosition=bottom;verticalAlign=top;align=center;html=1;fontSize=12;fontStyle=1;aspect=fixed;shape=mxgraph.aws4.resourceIcon;resIcon=mxgraph.aws4.auto_scaling2;" parent="1" vertex="1">
          <mxGeometry x="697" y="340" width="78" height="78" as="geometry" />
        </mxCell>
        <mxCell id="02hSYp207ZbuOktpREeJ-9" value="" style="outlineConnect=0;fontColor=#232F3E;gradientColor=none;fillColor=#D86613;strokeColor=none;dashed=0;verticalLabelPosition=bottom;verticalAlign=top;align=center;html=1;fontSize=12;fontStyle=0;aspect=fixed;pointerEvents=1;shape=mxgraph.aws4.t2_instance;" parent="1" vertex="1">
          <mxGeometry x="1080" y="440" width="48" height="48" as="geometry" />
        </mxCell>
        <mxCell id="02hSYp207ZbuOktpREeJ-11" value="Cloud 9" style="outlineConnect=0;fontColor=#232F3E;gradientColor=#4D72F3;gradientDirection=north;fillColor=#3334B9;strokeColor=#ffffff;dashed=0;verticalLabelPosition=bottom;verticalAlign=top;align=center;html=1;fontSize=12;fontStyle=1;aspect=fixed;shape=mxgraph.aws4.resourceIcon;resIcon=mxgraph.aws4.cloud9;" parent="1" vertex="1">
          <mxGeometry x="697" y="720" width="78" height="78" as="geometry" />
        </mxCell>
        <mxCell id="02hSYp207ZbuOktpREeJ-17" value="Android" style="outlineConnect=0;fontColor=#232F3E;gradientColor=#F54749;gradientDirection=north;fillColor=#C7131F;strokeColor=#ffffff;dashed=0;verticalLabelPosition=bottom;verticalAlign=top;align=center;html=1;fontSize=12;fontStyle=1;aspect=fixed;shape=mxgraph.aws4.resourceIcon;resIcon=mxgraph.aws4.mobile;" parent="1" vertex="1">
          <mxGeometry x="10" y="344" width="78" height="78" as="geometry" />
        </mxCell>
        <mxCell id="02hSYp207ZbuOktpREeJ-18" value="IAM" style="outlineConnect=0;fontColor=#232F3E;gradientColor=#F54749;gradientDirection=north;fillColor=#C7131F;strokeColor=#ffffff;dashed=0;verticalLabelPosition=bottom;verticalAlign=top;align=center;html=1;fontSize=12;fontStyle=1;aspect=fixed;shape=mxgraph.aws4.resourceIcon;resIcon=mxgraph.aws4.identity_and_access_management;" parent="1" vertex="1">
          <mxGeometry x="697" y="617.5" width="78" height="78" as="geometry" />
        </mxCell>
        <mxCell id="02hSYp207ZbuOktpREeJ-25" value="Django&lt;br&gt;Framework" style="outlineConnect=0;fontColor=#232F3E;gradientColor=#945DF2;gradientDirection=north;fillColor=#5A30B5;strokeColor=#ffffff;dashed=0;verticalLabelPosition=bottom;verticalAlign=top;align=center;html=1;fontSize=12;fontStyle=1;aspect=fixed;shape=mxgraph.aws4.resourceIcon;resIcon=mxgraph.aws4.api_gateway;" parent="1" vertex="1">
          <mxGeometry x="333.5" y="342" width="78" height="78" as="geometry" />
        </mxCell>
        <mxCell id="02hSYp207ZbuOktpREeJ-27" value="" style="outlineConnect=0;fontColor=#232F3E;gradientColor=none;fillColor=#3334B9;strokeColor=none;dashed=0;verticalLabelPosition=bottom;verticalAlign=top;align=center;html=1;fontSize=12;fontStyle=0;aspect=fixed;pointerEvents=1;shape=mxgraph.aws4.t3_instance;" parent="1" vertex="1">
          <mxGeometry x="1080" y="325.5" width="48" height="48" as="geometry" />
        </mxCell>
        <mxCell id="4u2JqEsfzCHy2befoRDk-4" value="" style="outlineConnect=0;fontColor=#232F3E;gradientColor=none;fillColor=#3334B9;strokeColor=none;dashed=0;verticalLabelPosition=bottom;verticalAlign=top;align=center;html=1;fontSize=12;fontStyle=0;aspect=fixed;pointerEvents=1;shape=mxgraph.aws4.t3_instance;" parent="1" vertex="1">
          <mxGeometry x="1080" y="91" width="48" height="48" as="geometry" />
        </mxCell>
        <mxCell id="02hSYp207ZbuOktpREeJ-32" value="&lt;b&gt;JSON&lt;/b&gt;" style="dashed=0;outlineConnect=0;html=1;align=center;labelPosition=center;verticalLabelPosition=bottom;verticalAlign=top;shape=mxgraph.weblogos.json_2;strokeColor=#3334B9;fillColor=#3334B9;" parent="1" vertex="1">
          <mxGeometry x="96.5" y="388" width="80.4" height="25.200000000000003" as="geometry" />
        </mxCell>
        <mxCell id="4u2JqEsfzCHy2befoRDk-3" value="RESTful&lt;br&gt;API" style="outlineConnect=0;fontColor=#232F3E;gradientColor=#945DF2;gradientDirection=south;fillColor=#5A30B5;strokeColor=#ffffff;dashed=0;verticalLabelPosition=bottom;verticalAlign=top;align=center;html=1;fontSize=12;fontStyle=1;aspect=fixed;shape=mxgraph.aws4.resourceIcon;resIcon=mxgraph.aws4.elastic_load_balancing;direction=west;" parent="1" vertex="1">
          <mxGeometry x="185.5" y="341" width="79" height="79" as="geometry" />
        </mxCell>
        <mxCell id="4u2JqEsfzCHy2befoRDk-6" value="" style="outlineConnect=0;fontColor=#232F3E;gradientColor=none;fillColor=#3334B9;strokeColor=none;dashed=0;verticalLabelPosition=bottom;verticalAlign=top;align=center;html=1;fontSize=12;fontStyle=0;aspect=fixed;pointerEvents=1;shape=mxgraph.aws4.t3_instance;" parent="1" vertex="1">
          <mxGeometry x="1080" y="208" width="48" height="48" as="geometry" />
        </mxCell>
        <mxCell id="4u2JqEsfzCHy2befoRDk-8" style="edgeStyle=orthogonalEdgeStyle;rounded=0;orthogonalLoop=1;jettySize=auto;html=1;startArrow=open;startFill=0;endArrow=open;endFill=0;strokeWidth=2;strokeColor=#808080;" parent="1" source="02hSYp207ZbuOktpREeJ-17" target="4u2JqEsfzCHy2befoRDk-3" edge="1">
          <mxGeometry relative="1" as="geometry">
            <Array as="points">
              <mxPoint x="112.5" y="381" />
            </Array>
            <mxPoint x="76.5" y="300" as="sourcePoint" />
            <mxPoint x="136.5" y="300" as="targetPoint" />
          </mxGeometry>
        </mxCell>
        <mxCell id="4u2JqEsfzCHy2befoRDk-11" style="edgeStyle=orthogonalEdgeStyle;rounded=0;orthogonalLoop=1;jettySize=auto;html=1;startArrow=open;startFill=0;endArrow=open;endFill=0;strokeWidth=2;strokeColor=#808080;" parent="1" source="4u2JqEsfzCHy2befoRDk-3" target="02hSYp207ZbuOktpREeJ-25" edge="1">
          <mxGeometry relative="1" as="geometry">
            <Array as="points" />
            <mxPoint x="126.5" y="389" as="sourcePoint" />
            <mxPoint x="195.5" y="389" as="targetPoint" />
          </mxGeometry>
        </mxCell>
        <mxCell id="4u2JqEsfzCHy2befoRDk-15" style="rounded=0;orthogonalLoop=1;jettySize=auto;html=1;startArrow=open;startFill=0;endArrow=open;endFill=0;strokeWidth=2;strokeColor=#808080;" parent="1" source="02hSYp207ZbuOktpREeJ-25" target="02hSYp207ZbuOktpREeJ-1" edge="1">
          <mxGeometry relative="1" as="geometry">
            <mxPoint x="274.5" y="390.5" as="sourcePoint" />
            <mxPoint x="343.5" y="390.5" as="targetPoint" />
          </mxGeometry>
        </mxCell>
        <mxCell id="4u2JqEsfzCHy2befoRDk-18" style="rounded=0;orthogonalLoop=1;jettySize=auto;html=1;startArrow=open;startFill=0;endArrow=open;endFill=0;strokeWidth=2;strokeColor=#808080;edgeStyle=orthogonalEdgeStyle;elbow=vertical;" parent="1" target="02hSYp207ZbuOktpREeJ-4" edge="1">
          <mxGeometry relative="1" as="geometry">
            <mxPoint x="775" y="239.96938775510216" as="sourcePoint" />
            <mxPoint x="844" y="239.03061224489807" as="targetPoint" />
            <Array as="points">
              <mxPoint x="926.5" y="240" />
              <mxPoint x="926.5" y="240" />
            </Array>
          </mxGeometry>
        </mxCell>
        <mxCell id="4u2JqEsfzCHy2befoRDk-21" style="rounded=0;orthogonalLoop=1;jettySize=auto;html=1;startArrow=open;startFill=0;endArrow=open;endFill=0;strokeWidth=2;strokeColor=#808080;" parent="1" source="02hSYp207ZbuOktpREeJ-4" target="4u2JqEsfzCHy2befoRDk-6" edge="1">
          <mxGeometry relative="1" as="geometry">
            <mxPoint x="905.5" y="215.72033898305085" as="sourcePoint" />
            <mxPoint x="945.5" y="189.27966101694915" as="targetPoint" />
          </mxGeometry>
        </mxCell>
        <mxCell id="4u2JqEsfzCHy2befoRDk-22" style="rounded=0;orthogonalLoop=1;jettySize=auto;html=1;startArrow=open;startFill=0;endArrow=open;endFill=0;strokeWidth=2;strokeColor=#808080;fontStyle=1" parent="1" source="02hSYp207ZbuOktpREeJ-5" target="4u2JqEsfzCHy2befoRDk-4" edge="1">
          <mxGeometry relative="1" as="geometry">
            <mxPoint x="915.5" y="225.72033898305085" as="sourcePoint" />
            <mxPoint x="955.5" y="199.27966101694915" as="targetPoint" />
          </mxGeometry>
        </mxCell>
        <mxCell id="4u2JqEsfzCHy2befoRDk-23" style="rounded=0;orthogonalLoop=1;jettySize=auto;html=1;startArrow=open;startFill=0;endArrow=open;endFill=0;strokeWidth=2;strokeColor=#808080;" parent="1" source="02hSYp207ZbuOktpREeJ-3" target="02hSYp207ZbuOktpREeJ-27" edge="1">
          <mxGeometry relative="1" as="geometry">
            <mxPoint x="925.5" y="235.72033898305085" as="sourcePoint" />
            <mxPoint x="965.5" y="209.27966101694915" as="targetPoint" />
          </mxGeometry>
        </mxCell>
        <mxCell id="4u2JqEsfzCHy2befoRDk-30" style="rounded=0;orthogonalLoop=1;jettySize=auto;html=1;startArrow=open;startFill=0;endArrow=open;endFill=0;strokeWidth=2;strokeColor=#808080;edgeStyle=elbowEdgeStyle;" parent="1" edge="1">
          <mxGeometry relative="1" as="geometry">
            <mxPoint x="775" y="360" as="sourcePoint" />
            <mxPoint x="934.5" y="466" as="targetPoint" />
            <Array as="points">
              <mxPoint x="860" y="410" />
            </Array>
          </mxGeometry>
        </mxCell>
        <mxCell id="4u2JqEsfzCHy2befoRDk-32" value="EC2" style="outlineConnect=0;fontColor=#232F3E;gradientColor=#F78E04;gradientDirection=north;fillColor=#D05C17;strokeColor=#ffffff;dashed=0;verticalLabelPosition=bottom;verticalAlign=top;align=center;html=1;fontSize=12;fontStyle=1;aspect=fixed;shape=mxgraph.aws4.resourceIcon;resIcon=mxgraph.aws4.ec2;" parent="1" vertex="1">
          <mxGeometry x="936.5" y="427" width="78" height="78" as="geometry" />
        </mxCell>
        <mxCell id="4u2JqEsfzCHy2befoRDk-33" value="EC2" style="outlineConnect=0;fontColor=#232F3E;gradientColor=#F78E04;gradientDirection=north;fillColor=#D05C17;strokeColor=#ffffff;dashed=0;verticalLabelPosition=bottom;verticalAlign=top;align=center;html=1;fontSize=12;fontStyle=1;aspect=fixed;shape=mxgraph.aws4.resourceIcon;resIcon=mxgraph.aws4.ec2;" parent="1" vertex="1">
          <mxGeometry x="936.5" y="548.5" width="78" height="78" as="geometry" />
        </mxCell>
        <mxCell id="4u2JqEsfzCHy2befoRDk-34" value="EC2" style="outlineConnect=0;fontColor=#232F3E;gradientColor=#F78E04;gradientDirection=north;fillColor=#D05C17;strokeColor=#ffffff;dashed=0;verticalLabelPosition=bottom;verticalAlign=top;align=center;html=1;fontSize=12;fontStyle=1;aspect=fixed;shape=mxgraph.aws4.resourceIcon;resIcon=mxgraph.aws4.ec2;" parent="1" vertex="1">
          <mxGeometry x="936.5" y="670" width="78" height="78" as="geometry" />
        </mxCell>
        <mxCell id="4u2JqEsfzCHy2befoRDk-35" value="" style="outlineConnect=0;fontColor=#232F3E;gradientColor=none;fillColor=#D86613;strokeColor=none;dashed=0;verticalLabelPosition=bottom;verticalAlign=top;align=center;html=1;fontSize=12;fontStyle=0;aspect=fixed;pointerEvents=1;shape=mxgraph.aws4.t2_instance;" parent="1" vertex="1">
          <mxGeometry x="1080" y="563.5" width="48" height="48" as="geometry" />
        </mxCell>
        <mxCell id="4u2JqEsfzCHy2befoRDk-36" value="" style="outlineConnect=0;fontColor=#232F3E;gradientColor=none;fillColor=#D86613;strokeColor=none;dashed=0;verticalLabelPosition=bottom;verticalAlign=top;align=center;html=1;fontSize=12;fontStyle=0;aspect=fixed;pointerEvents=1;shape=mxgraph.aws4.t2_instance;" parent="1" vertex="1">
          <mxGeometry x="1080" y="685" width="48" height="48" as="geometry" />
        </mxCell>
        <mxCell id="4u2JqEsfzCHy2befoRDk-37" style="rounded=0;orthogonalLoop=1;jettySize=auto;html=1;startArrow=open;startFill=0;endArrow=open;endFill=0;strokeWidth=2;strokeColor=#808080;edgeStyle=elbowEdgeStyle;" parent="1" source="02hSYp207ZbuOktpREeJ-8" target="4u2JqEsfzCHy2befoRDk-33" edge="1">
          <mxGeometry relative="1" as="geometry">
            <mxPoint x="780" y="379" as="sourcePoint" />
            <mxPoint x="946.5" y="459.2437185929648" as="targetPoint" />
            <Array as="points">
              <mxPoint x="840" y="480" />
            </Array>
          </mxGeometry>
        </mxCell>
        <mxCell id="4u2JqEsfzCHy2befoRDk-38" style="rounded=0;orthogonalLoop=1;jettySize=auto;html=1;startArrow=open;startFill=0;endArrow=open;endFill=0;strokeWidth=2;strokeColor=#808080;edgeStyle=elbowEdgeStyle;" parent="1" target="4u2JqEsfzCHy2befoRDk-34" edge="1">
          <mxGeometry relative="1" as="geometry">
            <mxPoint x="775" y="400" as="sourcePoint" />
            <mxPoint x="931.5" y="709" as="targetPoint" />
            <Array as="points">
              <mxPoint x="820" y="560" />
            </Array>
          </mxGeometry>
        </mxCell>
        <mxCell id="4u2JqEsfzCHy2befoRDk-40" style="rounded=0;orthogonalLoop=1;jettySize=auto;html=1;startArrow=open;startFill=0;endArrow=open;endFill=0;strokeWidth=2;strokeColor=#808080;" parent="1" edge="1" target="02hSYp207ZbuOktpREeJ-9">
          <mxGeometry relative="1" as="geometry">
            <mxPoint x="1014.5" y="463.67256637168146" as="sourcePoint" />
            <mxPoint x="1064.5" y="463.8938053097345" as="targetPoint" />
          </mxGeometry>
        </mxCell>
        <mxCell id="4u2JqEsfzCHy2befoRDk-41" style="rounded=0;orthogonalLoop=1;jettySize=auto;html=1;startArrow=open;startFill=0;endArrow=open;endFill=0;strokeWidth=2;strokeColor=#808080;" parent="1" edge="1" target="4u2JqEsfzCHy2befoRDk-35" source="4u2JqEsfzCHy2befoRDk-33">
          <mxGeometry relative="1" as="geometry">
            <mxPoint x="1015.5" y="593.1725663716816" as="sourcePoint" />
            <mxPoint x="1065.5" y="593.3938053097345" as="targetPoint" />
          </mxGeometry>
        </mxCell>
        <mxCell id="4u2JqEsfzCHy2befoRDk-42" style="rounded=0;orthogonalLoop=1;jettySize=auto;html=1;startArrow=open;startFill=0;endArrow=open;endFill=0;strokeWidth=2;strokeColor=#808080;" parent="1" edge="1" target="4u2JqEsfzCHy2befoRDk-36">
          <mxGeometry relative="1" as="geometry">
            <mxPoint x="1014.5" y="708.1725663716816" as="sourcePoint" />
            <mxPoint x="1064.5" y="708.3938053097345" as="targetPoint" />
          </mxGeometry>
        </mxCell>
        <mxCell id="4u2JqEsfzCHy2befoRDk-43" value="Log" style="rounded=0;orthogonalLoop=1;jettySize=auto;html=1;startArrow=none;startFill=0;endArrow=open;endFill=0;strokeWidth=2;strokeColor=#808080;fontStyle=1" parent="1" source="02hSYp207ZbuOktpREeJ-2" target="UEzPUAAOIrF-is8g5C7q-116" edge="1">
          <mxGeometry x="-0.0146" y="-14" relative="1" as="geometry">
            <mxPoint x="516.5" y="242" as="sourcePoint" />
            <mxPoint x="567.5" y="242" as="targetPoint" />
            <mxPoint as="offset" />
          </mxGeometry>
        </mxCell>
        <mxCell id="SnY5fto8O481bCajrwKU-1" value="" style="outlineConnect=0;dashed=0;verticalLabelPosition=bottom;verticalAlign=top;align=center;html=1;shape=mxgraph.aws3.cloud_2;fillColor=#F58534;gradientColor=none;" parent="1" vertex="1">
          <mxGeometry x="40" y="40" width="200" height="200" as="geometry" />
        </mxCell>
        <mxCell id="SnY5fto8O481bCajrwKU-7" value="&lt;font style=&quot;font-size: 20px&quot;&gt;Scalable RESTful Server Architecture&lt;br&gt;With Amazon Web Service /&lt;br&gt;Django Framework&lt;/font&gt;" style="text;html=1;align=center;verticalAlign=middle;resizable=0;points=[];;autosize=1;fontStyle=3" parent="1" vertex="1">
          <mxGeometry x="240" y="40" width="370" height="60" as="geometry" />
        </mxCell>
        <mxCell id="SnY5fto8O481bCajrwKU-8" value="Made by JWS" style="text;html=1;align=center;verticalAlign=middle;resizable=0;points=[];;autosize=1;fontStyle=3;fontSize=16;" parent="1" vertex="1">
          <mxGeometry x="459.5" y="110" width="120" height="20" as="geometry" />
        </mxCell>
      </root>
    </mxGraphModel>
  </diagram>
</mxfile>
